<?xml version="1.0" encoding="UTF-8"?>
<svg width="48px" height="48px" viewBox="0 0 48 48" version="1.1" xmlns="http://www.w3.org/2000/svg" xmlns:xlink="http://www.w3.org/1999/xlink">
    <!-- Generator: sketchtool 43.1 (39012) - http://www.bohemiancoding.com/sketch -->
    <title>8E4FDFBE-6093-4536-AC44-68174E2A46E3</title>
    <desc>Created with sketchtool.</desc>
    <defs></defs>
    <g id="Page-1" stroke="none" stroke-width="1" fill="none" fill-rule="evenodd">
        <g id="新图标" transform="translate(-21.000000, -146.000000)">
            <g id="活动" transform="translate(21.000000, 146.000000)">
                <polygon id="Mask" points="14 8.24729737 14 29.9054289 23.7280382 29.9054289 33.4560763 29.9054289 33.4560763 8.24729737 14 8.24729737"></polygon>
                <path d="M23.7280237,8.24729737 C18.3553921,8.24729737 13.9999711,12.6027184 13.9999711,17.97535 C13.9999711,22.3634816 16.9059974,26.0719289 20.8984184,27.2839553 L23.7280237,29.9054289 L26.5576289,27.2839553 C30.5497605,26.0719289 33.4560763,22.3634816 33.4560763,17.97535 C33.4560763,12.6027184 29.1006553,8.24729737 23.7280237,8.24729737 M23.7280237,9.48016579 C28.4328395,9.48016579 32.2602605,13.3078763 32.2602605,18.0126921 C32.2602605,21.7972711 29.8289711,25.0784553 26.2102605,26.1770079 L26.0313658,26.2314289 L25.8941553,26.3585079 L23.7280237,28.3651395 L21.5621816,26.3585079 L21.4249711,26.2314289 L21.2457868,26.1770079 C17.6270763,25.0784553 15.1957868,21.7972711 15.1957868,18.0126921 C15.1957868,13.3078763 19.0232079,9.48016579 23.7280237,9.48016579" id="Fill-13" fill="#666666"></path>
                <path d="M27.3124895,13.7259342 C28.1108579,14.4235658 28.7048579,15.3490132 28.9914368,16.4021184 C29.0638053,16.6681447 29.3107263,16.8479079 29.5860158,16.8299605 L29.5860158,16.8299605 C29.9565421,16.8059342 30.2025947,16.4461184 30.1044632,16.0880395 C29.7568053,14.8186974 29.0394895,13.7030658 28.0764105,12.8609868 C27.7993842,12.6189868 27.3718316,12.68325 27.1883053,13.0019605 L27.1883053,13.0019605 C27.0499368,13.2419342 27.1037789,13.5435658 27.3124895,13.7259342" id="Fill-16" fill="#666666"></path>
                <path d="M20.4217421,22.1741658 C18.9367421,21.0417447 18.0471895,19.1697184 18.3166895,17.1037447 C18.6122421,14.8391921 20.3421368,12.9723763 22.5765842,12.4996658 C23.5813474,12.2869026 24.5432684,12.3630342 25.4111105,12.6472974 C25.6719263,12.7326921 25.9561895,12.6276132 26.0934,12.3896658 L26.0934,12.3896658 C26.2731632,12.0776132 26.1290053,11.6706132 25.7871368,11.5574289 C24.7760053,11.2233763 23.6583474,11.1237974 22.4926368,11.3406132 C19.7212158,11.8561658 17.5495842,14.1343237 17.1773211,16.9283237 C16.8424,19.4429816 17.9227158,21.7292447 19.7330842,23.1042447 C20.0083737,23.3132447 20.4069789,23.2217711 20.5780579,22.9215868 L20.5780579,22.9215868 C20.7219263,22.6685868 20.6533211,22.3507447 20.4217421,22.1741658" id="Fill-18" fill="#666666"></path>
                <path d="M29.6637974,18.0820211 C29.3885079,18.0999684 29.1667711,18.3101263 29.1294289,18.5833895 C28.7652711,21.2445211 26.4891395,23.2960211 23.7281395,23.2960211 C23.2670079,23.2960211 22.82035,23.2363895 22.3933763,23.1272579 C22.1412447,23.0629947 21.8778237,23.1735737 21.7492974,23.3996526 L21.7492974,23.3996526 C21.5585342,23.7345737 21.7432184,24.1554684 22.1169289,24.2495474 C22.6324816,24.3789421 23.1720605,24.4481263 23.7281395,24.4481263 C27.0695342,24.4481263 29.8305342,21.9684947 30.2748763,18.7489684 C30.3255342,18.3819158 30.0334553,18.0579947 29.6637974,18.0820211 Z" id="Fill-20" fill="#666666"></path>
                <text font-family="PingFangSC-Semibold, PingFang SC" font-size="10" font-weight="500" fill="#666666">
                    <tspan x="14" y="42">活动</tspan>
                </text>
            </g>
        </g>
    </g>
</svg>