<?xml version="1.0" encoding="UTF-8"?>
<svg width="48px" height="48px" viewBox="0 0 48 48" version="1.1" xmlns="http://www.w3.org/2000/svg" xmlns:xlink="http://www.w3.org/1999/xlink">
    <!-- Generator: sketchtool 43.1 (39012) - http://www.bohemiancoding.com/sketch -->
    <title>D3B9CF28-4BC7-4328-B2A2-64363D802D67</title>
    <desc>Created with sketchtool.</desc>
    <defs></defs>
    <g id="Page-1" stroke="none" stroke-width="1" fill="none" fill-rule="evenodd">
        <g id="新图标" transform="translate(-107.000000, -78.000000)" fill="#539FFD">
            <g id="首页选中图标" transform="translate(107.000000, 78.000000)">
                <path d="M34.8941096,15.6635068 L34.8941096,15.6635068 L24.8891781,6.30871233 C24.4491781,5.89747945 23.7593151,5.89693151 23.3187671,6.30789041 L13.3349315,15.6152877 C13.11,15.8248767 13.0615068,16.1646027 13.2220548,16.4051507 C13.3217808,16.5544658 13.480137,16.651726 13.6565753,16.672274 C13.8319178,16.6925479 14.0078082,16.6350137 14.1368493,16.5141918 L23.7247945,7.57638356 C23.9371233,7.37857534 24.27,7.37857534 24.4817808,7.57693151 L34.0708219,16.5426849 C34.1828767,16.6473425 34.3289041,16.7051507 34.4826027,16.7051507 C34.6489041,16.7051507 34.8091781,16.6355616 34.9223288,16.5144658 C35.0321918,16.3969315 35.09,16.2437808 35.0847945,16.0829589 C35.0793151,15.922411 35.0116438,15.7733699 34.8941096,15.6635068" id="Fill-40"></path>
                <path d="M31.5626849,15.847589 C31.2303562,15.847589 30.9602192,16.1174521 30.9602192,16.4495068 L30.9602192,24.3366301 C30.9602192,24.4938904 30.832274,24.6218356 30.6750137,24.6218356 L26.961589,24.6218356 L26.961589,19.2538904 C26.961589,18.9999178 26.7550137,18.7933425 26.5010411,18.7933425 L21.8084384,18.7933425 C21.4985753,18.7933425 21.2465205,19.0453973 21.2465205,19.3552603 L21.2465205,24.6218356 L17.472,24.6218356 C17.3487123,24.6218356 17.2481644,24.5212877 17.2481644,24.397726 L17.2481644,16.4774521 C17.2481644,16.1692329 17.032,15.9018356 16.7456986,15.8555342 C16.5689863,15.827589 16.3898082,15.8763562 16.2550137,15.9911507 C16.1202192,16.1059452 16.0432329,16.2730685 16.0432329,16.4495068 L16.0432329,25.0267671 C16.0432329,25.4673151 16.4013151,25.8256712 16.841863,25.8256712 L22.0774795,25.8256712 C22.2840548,25.8256712 22.451726,25.658 22.451726,25.4516986 L22.451726,19.9974521 L25.7566575,19.9974521 L25.7566575,25.458274 C25.7566575,25.6610137 25.9213151,25.8256712 26.1237808,25.8256712 L31.1372055,25.8256712 C31.7040548,25.8256712 32.1651507,25.3648493 32.1651507,24.798 L32.1651507,16.4495068 C32.1651507,16.1174521 31.8947397,15.847589 31.5626849,15.847589" id="Fill-43"></path>
                <path d="M27.9198356,8.56068493 L27.9201096,8.56068493 L30.1439452,8.56068493 C30.5940822,8.56068493 30.9601096,8.92671233 30.9601096,9.37684932 L30.9601096,11.2228767 C30.9601096,11.5308219 31.175726,11.7982192 31.4614795,11.8447945 C31.4949041,11.850274 31.5280548,11.8530137 31.5614795,11.8530137 C31.7044932,11.8530137 31.8431233,11.8028767 31.9527123,11.71 C32.0877808,11.5952055 32.1650411,11.4278082 32.1650411,11.2510959 L32.1650411,8.94917808 C32.1650411,8.07109589 31.4507945,7.35684932 30.5724384,7.35684932 L27.9475068,7.35684932 C27.6392877,7.35684932 27.3718904,7.57273973 27.325589,7.85876712 C27.2970959,8.03547945 27.346137,8.21410959 27.4609315,8.34863014 C27.575726,8.48342466 27.7428493,8.56068493 27.9198356,8.56068493" id="Fill-45"></path>
                <text id="首页选中" font-family="PingFangSC-Semibold, PingFang SC" font-size="10" font-weight="500">
                    <tspan x="14" y="40">首页</tspan>
                </text>
            </g>
        </g>
    </g>
</svg>