<?xml version="1.0" encoding="UTF-8"?>
<svg width="48px" height="48px" viewBox="0 0 48 48" version="1.1" xmlns="http://www.w3.org/2000/svg" xmlns:xlink="http://www.w3.org/1999/xlink">
    <!-- Generator: sketchtool 43.1 (39012) - http://www.bohemiancoding.com/sketch -->
    <title>CC4F2309-8137-4D5A-9C34-F4A5D6A3C6A5</title>
    <desc>Created with sketchtool.</desc>
    <defs></defs>
    <g id="Page-1" stroke="none" stroke-width="1" fill="none" fill-rule="evenodd">
        <g id="新图标" transform="translate(-107.000000, -146.000000)">
            <g id="活动选中" transform="translate(107.000000, 146.000000)">
                <polygon id="Mask" points="13 7.24729737 13 28.9054289 22.7280382 28.9054289 32.4560763 28.9054289 32.4560763 7.24729737 13 7.24729737"></polygon>
                <path d="M22.7280237,7.24729737 C17.3553921,7.24729737 12.9999711,11.6027184 12.9999711,16.97535 C12.9999711,21.3634816 15.9059974,25.0719289 19.8984184,26.2839553 L22.7280237,28.9054289 L25.5576289,26.2839553 C29.5497605,25.0719289 32.4560763,21.3634816 32.4560763,16.97535 C32.4560763,11.6027184 28.1006553,7.24729737 22.7280237,7.24729737 M22.7280237,8.48016579 C27.4328395,8.48016579 31.2602605,12.3078763 31.2602605,17.0126921 C31.2602605,20.7972711 28.8289711,24.0784553 25.2102605,25.1770079 L25.0313658,25.2314289 L24.8941553,25.3585079 L22.7280237,27.3651395 L20.5621816,25.3585079 L20.4249711,25.2314289 L20.2457868,25.1770079 C16.6270763,24.0784553 14.1957868,20.7972711 14.1957868,17.0126921 C14.1957868,12.3078763 18.0232079,8.48016579 22.7280237,8.48016579" id="Fill-13" fill="#539FFD"></path>
                <path d="M26.3124895,12.7259342 C27.1108579,13.4235658 27.7048579,14.3490132 27.9914368,15.4021184 C28.0638053,15.6681447 28.3107263,15.8479079 28.5860158,15.8299605 L28.5860158,15.8299605 C28.9565421,15.8059342 29.2025947,15.4461184 29.1044632,15.0880395 C28.7568053,13.8186974 28.0394895,12.7030658 27.0764105,11.8609868 C26.7993842,11.6189868 26.3718316,11.68325 26.1883053,12.0019605 L26.1883053,12.0019605 C26.0499368,12.2419342 26.1037789,12.5435658 26.3124895,12.7259342" id="Fill-16" fill="#539FFD"></path>
                <path d="M19.4217421,21.1741658 C17.9367421,20.0417447 17.0471895,18.1697184 17.3166895,16.1037447 C17.6122421,13.8391921 19.3421368,11.9723763 21.5765842,11.4996658 C22.5813474,11.2869026 23.5432684,11.3630342 24.4111105,11.6472974 C24.6719263,11.7326921 24.9561895,11.6276132 25.0934,11.3896658 L25.0934,11.3896658 C25.2731632,11.0776132 25.1290053,10.6706132 24.7871368,10.5574289 C23.7760053,10.2233763 22.6583474,10.1237974 21.4926368,10.3406132 C18.7212158,10.8561658 16.5495842,13.1343237 16.1773211,15.9283237 C15.8424,18.4429816 16.9227158,20.7292447 18.7330842,22.1042447 C19.0083737,22.3132447 19.4069789,22.2217711 19.5780579,21.9215868 L19.5780579,21.9215868 C19.7219263,21.6685868 19.6533211,21.3507447 19.4217421,21.1741658" id="Fill-18" fill="#539FFD"></path>
                <path d="M28.6637974,17.0820211 C28.3885079,17.0999684 28.1667711,17.3101263 28.1294289,17.5833895 C27.7652711,20.2445211 25.4891395,22.2960211 22.7281395,22.2960211 C22.2670079,22.2960211 21.82035,22.2363895 21.3933763,22.1272579 C21.1412447,22.0629947 20.8778237,22.1735737 20.7492974,22.3996526 L20.7492974,22.3996526 C20.5585342,22.7345737 20.7432184,23.1554684 21.1169289,23.2495474 C21.6324816,23.3789421 22.1720605,23.4481263 22.7281395,23.4481263 C26.0695342,23.4481263 28.8305342,20.9684947 29.2748763,17.7489684 C29.3255342,17.3819158 29.0334553,17.0579947 28.6637974,17.0820211 Z" id="Fill-20" fill="#539FFD"></path>
                <text id="活动" font-family="PingFangSC-Semibold, PingFang SC" font-size="10" font-weight="500" fill="#539FFD">
                    <tspan x="13" y="41">活动</tspan>
                </text>
            </g>
        </g>
    </g>
</svg>