<?xml version="1.0" encoding="UTF-8"?>
<svg width="48px" height="48px" viewBox="0 0 48 48" version="1.1" xmlns="http://www.w3.org/2000/svg" xmlns:xlink="http://www.w3.org/1999/xlink">
    <!-- Generator: sketchtool 43.1 (39012) - http://www.bohemiancoding.com/sketch -->
    <title>21CBEEFD-72EE-4138-836C-37BEA8920E60</title>
    <desc>Created with sketchtool.</desc>
    <defs></defs>
    <g id="Page-1" stroke="none" stroke-width="1" fill="none" fill-rule="evenodd">
        <g id="新图标" transform="translate(-279.000000, -14.000000)" fill="#539FFD">
            <g id="我的选中" transform="translate(279.000000, 14.000000)">
                <g id="个人中心" transform="translate(15.000000, 5.000000)">
                    <path d="M8.52985714,1.35671429 C10.6847143,1.35671429 12.4378571,3.20414286 12.4378571,5.47528571 C12.4378571,7.74614286 10.6847143,9.59357143 8.52985714,9.59357143 C6.375,9.59357143 4.62185714,7.74614286 4.62185714,5.47528571 C4.62185714,3.20414286 6.375,1.35671429 8.52985714,1.35671429 M12.0644286,1.81528571 C11.1215714,0.829 9.86642857,0.285571429 8.52985714,0.285571429 C7.19328571,0.285571429 5.93814286,0.829 4.99528571,1.81528571 C4.05957143,2.79414286 3.54471429,4.09385714 3.54471429,5.47528571 C3.54471429,6.85642857 4.05957143,8.15614286 4.99528571,9.135 C5.25414286,9.40585714 5.54042857,9.64671429 5.84528571,9.85042857 L5.98985714,9.94671429 L5.82557143,10.0027143 C4.55985714,10.4341429 3.469,11.099 2.58271429,11.9781429 C0.874428571,13.6721429 0.00557142857,16.083 0.000142857143,19.1438571 C-0.000428571429,19.4718571 0.265857143,19.7392857 0.594142857,19.7401429 C0.921857143,19.7401429 1.18957143,19.4735714 1.19014286,19.1461429 C1.19642857,15.6241429 2.42271429,13.1355714 4.83528571,11.7492857 C6.66071429,10.7004286 8.54814286,10.6872857 8.56728571,10.6872857 C8.62757143,10.6872857 8.68414286,10.679 8.73357143,10.6641429 L8.76071429,10.659 C10.0081429,10.6004286 11.1812857,10.059 12.0644286,9.135 C13.0001429,8.15614286 13.515,6.85642857 13.515,5.47528571 C13.515,4.09385714 13.0001429,2.79414286 12.0644286,1.81528571" id="Fill-1"></path>
                    <path d="M14.0689143,11.3550571 C13.9774857,11.3013429 13.8732,11.2730571 13.7680571,11.2730571 C13.5574857,11.2730571 13.3606286,11.3853429 13.2537714,11.5664857 C13.0877714,11.8490571 13.1826286,12.2144857 13.4649143,12.3804857 C13.4706286,12.3839143 14.0374857,12.7384857 14.6203429,13.6970571 C15.2017714,14.6542 15.8949143,16.3907714 15.8949143,19.2287714 C15.8949143,19.5567714 16.1617714,19.8236286 16.4900571,19.8236286 C16.8177714,19.8236286 17.0849143,19.5567714 17.0849143,19.2287714 C17.0849143,13.2002 14.1920571,11.4276286 14.0689143,11.3550571" id="Fill-4"></path>
                </g>
                <text id="我的" font-family="PingFangSC-Semibold, PingFang SC" font-size="10" font-weight="500">
                    <tspan x="14" y="41">我的</tspan>
                </text>
            </g>
        </g>
    </g>
</svg>